<svg xmlns="http://www.w3.org/2000/svg" width="448" height="448"><rect x="0" y="0" width="100%" height="100%" fill="rgb(86, 199, 61)"  /><rect x="0" y="13" width="100%" height="20" opacity="0.15" fill="#222"  /><rect x="0" y="52" width="100%" height="14" opacity="0.098" fill="#222"  /><rect x="0" y="82" width="100%" height="13" opacity="0.08933333333333333" fill="#ddd"  /><rect x="0" y="112" width="100%" height="19" opacity="0.14133333333333334" fill="#ddd"  /><rect x="0" y="139" width="100%" height="5" opacity="0.02" fill="#ddd"  /><rect x="0" y="152" width="100%" height="14" opacity="0.098" fill="#222"  /><rect x="0" y="184" width="100%" height="10" opacity="0.06333333333333334" fill="#222"  /><rect x="0" y="210" width="100%" height="7" opacity="0.03733333333333333" fill="#ddd"  /><rect x="0" y="235" width="100%" height="7" opacity="0.03733333333333333" fill="#ddd"  /><rect x="0" y="259" width="100%" height="15" opacity="0.10666666666666667" fill="#ddd"  /><rect x="0" y="286" width="100%" height="11" opacity="0.07200000000000001" fill="#ddd"  /><rect x="0" y="306" width="100%" height="16" opacity="0.11533333333333334" fill="#222"  /><rect x="0" y="328" width="100%" height="16" opacity="0.11533333333333334" fill="#222"  /><rect x="0" y="351" width="100%" height="7" opacity="0.03733333333333333" fill="#ddd"  /><rect x="0" y="363" width="100%" height="6" opacity="0.028666666666666667" fill="#222"  /><rect x="0" y="376" width="100%" height="9" opacity="0.05466666666666667" fill="#ddd"  /><rect x="0" y="400" width="100%" height="17" opacity="0.12400000000000001" fill="#ddd"  /><rect x="0" y="437" width="100%" height="11" opacity="0.07200000000000001" fill="#ddd"  /><rect x="13" y="0" width="20" height="100%" opacity="0.15" fill="#222"  /><rect x="52" y="0" width="14" height="100%" opacity="0.098" fill="#222"  /><rect x="82" y="0" width="13" height="100%" opacity="0.08933333333333333" fill="#ddd"  /><rect x="112" y="0" width="19" height="100%" opacity="0.14133333333333334" fill="#ddd"  /><rect x="139" y="0" width="5" height="100%" opacity="0.02" fill="#ddd"  /><rect x="152" y="0" width="14" height="100%" opacity="0.098" fill="#222"  /><rect x="184" y="0" width="10" height="100%" opacity="0.06333333333333334" fill="#222"  /><rect x="210" y="0" width="7" height="100%" opacity="0.03733333333333333" fill="#ddd"  /><rect x="235" y="0" width="7" height="100%" opacity="0.03733333333333333" fill="#ddd"  /><rect x="259" y="0" width="15" height="100%" opacity="0.10666666666666667" fill="#ddd"  /><rect x="286" y="0" width="11" height="100%" opacity="0.07200000000000001" fill="#ddd"  /><rect x="306" y="0" width="16" height="100%" opacity="0.11533333333333334" fill="#222"  /><rect x="328" y="0" width="16" height="100%" opacity="0.11533333333333334" fill="#222"  /><rect x="351" y="0" width="7" height="100%" opacity="0.03733333333333333" fill="#ddd"  /><rect x="363" y="0" width="6" height="100%" opacity="0.028666666666666667" fill="#222"  /><rect x="376" y="0" width="9" height="100%" opacity="0.05466666666666667" fill="#ddd"  /><rect x="400" y="0" width="17" height="100%" opacity="0.12400000000000001" fill="#ddd"  /><rect x="437" y="0" width="11" height="100%" opacity="0.07200000000000001" fill="#ddd"  /></svg>