<svg xmlns="http://www.w3.org/2000/svg" width="400" height="288"><rect x="0" y="0" width="100%" height="100%" fill="rgb(61, 97, 199)"  /><path d="M0 90 C 70.0 0, 130.0 0, 200 90 S 330.0 180, 400 90 S 530.0 0, 600.0, 90" fill="none" stroke="#222" style="opacity:0.15;stroke-width:8px;" transform="translate(-100, -135.0)"  /><path d="M0 90 C 70.0 0, 130.0 0, 200 90 S 330.0 180, 400 90 S 530.0 0, 600.0, 90" fill="none" stroke="#222" style="opacity:0.15;stroke-width:8px;" transform="translate(-100, 153.0)"  /><path d="M0 90 C 70.0 0, 130.0 0, 200 90 S 330.0 180, 400 90 S 530.0 0, 600.0, 90" fill="none" stroke="#222" style="opacity:0.13266666666666665;stroke-width:8px;" transform="translate(-100, -127.0)"  /><path d="M0 90 C 70.0 0, 130.0 0, 200 90 S 330.0 180, 400 90 S 530.0 0, 600.0, 90" fill="none" stroke="#222" style="opacity:0.13266666666666665;stroke-width:8px;" transform="translate(-100, 161.0)"  /><path d="M0 90 C 70.0 0, 130.0 0, 200 90 S 330.0 180, 400 90 S 530.0 0, 600.0, 90" fill="none" stroke="#222" style="opacity:0.046;stroke-width:8px;" transform="translate(-100, -119.0)"  /><path d="M0 90 C 70.0 0, 130.0 0, 200 90 S 330.0 180, 400 90 S 530.0 0, 600.0, 90" fill="none" stroke="#222" style="opacity:0.046;stroke-width:8px;" transform="translate(-100, 169.0)"  /><path d="M0 90 C 70.0 0, 130.0 0, 200 90 S 330.0 180, 400 90 S 530.0 0, 600.0, 90" fill="none" stroke="#ddd" style="opacity:0.08933333333333333;stroke-width:8px;" transform="translate(-100, -111.0)"  /><path d="M0 90 C 70.0 0, 130.0 0, 200 90 S 330.0 180, 400 90 S 530.0 0, 600.0, 90" fill="none" stroke="#ddd" style="opacity:0.08933333333333333;stroke-width:8px;" transform="translate(-100, 177.0)"  /><path d="M0 90 C 70.0 0, 130.0 0, 200 90 S 330.0 180, 400 90 S 530.0 0, 600.0, 90" fill="none" stroke="#ddd" style="opacity:0.08933333333333333;stroke-width:8px;" transform="translate(-100, -103.0)"  /><path d="M0 90 C 70.0 0, 130.0 0, 200 90 S 330.0 180, 400 90 S 530.0 0, 600.0, 90" fill="none" stroke="#ddd" style="opacity:0.08933333333333333;stroke-width:8px;" transform="translate(-100, 185.0)"  /><path d="M0 90 C 70.0 0, 130.0 0, 200 90 S 330.0 180, 400 90 S 530.0 0, 600.0, 90" fill="none" stroke="#222" style="opacity:0.098;stroke-width:8px;" transform="translate(-100, -95.0)"  /><path d="M0 90 C 70.0 0, 130.0 0, 200 90 S 330.0 180, 400 90 S 530.0 0, 600.0, 90" fill="none" stroke="#222" style="opacity:0.098;stroke-width:8px;" transform="translate(-100, 193.0)"  /><path d="M0 90 C 70.0 0, 130.0 0, 200 90 S 330.0 180, 400 90 S 530.0 0, 600.0, 90" fill="none" stroke="#ddd" style="opacity:0.02;stroke-width:8px;" transform="translate(-100, -87.0)"  /><path d="M0 90 C 70.0 0, 130.0 0, 200 90 S 330.0 180, 400 90 S 530.0 0, 600.0, 90" fill="none" stroke="#ddd" style="opacity:0.02;stroke-width:8px;" transform="translate(-100, 201.0)"  /><path d="M0 90 C 70.0 0, 130.0 0, 200 90 S 330.0 180, 400 90 S 530.0 0, 600.0, 90" fill="none" stroke="#222" style="opacity:0.08066666666666666;stroke-width:8px;" transform="translate(-100, -79.0)"  /><path d="M0 90 C 70.0 0, 130.0 0, 200 90 S 330.0 180, 400 90 S 530.0 0, 600.0, 90" fill="none" stroke="#222" style="opacity:0.08066666666666666;stroke-width:8px;" transform="translate(-100, 209.0)"  /><path d="M0 90 C 70.0 0, 130.0 0, 200 90 S 330.0 180, 400 90 S 530.0 0, 600.0, 90" fill="none" stroke="#ddd" style="opacity:0.08933333333333333;stroke-width:8px;" transform="translate(-100, -71.0)"  /><path d="M0 90 C 70.0 0, 130.0 0, 200 90 S 330.0 180, 400 90 S 530.0 0, 600.0, 90" fill="none" stroke="#ddd" style="opacity:0.08933333333333333;stroke-width:8px;" transform="translate(-100, 217.0)"  /><path d="M0 90 C 70.0 0, 130.0 0, 200 90 S 330.0 180, 400 90 S 530.0 0, 600.0, 90" fill="none" stroke="#ddd" style="opacity:0.12400000000000001;stroke-width:8px;" transform="translate(-100, -63.0)"  /><path d="M0 90 C 70.0 0, 130.0 0, 200 90 S 330.0 180, 400 90 S 530.0 0, 600.0, 90" fill="none" stroke="#ddd" style="opacity:0.12400000000000001;stroke-width:8px;" transform="translate(-100, 225.0)"  /><path d="M0 90 C 70.0 0, 130.0 0, 200 90 S 330.0 180, 400 90 S 530.0 0, 600.0, 90" fill="none" stroke="#ddd" style="opacity:0.10666666666666667;stroke-width:8px;" transform="translate(-100, -55.0)"  /><path d="M0 90 C 70.0 0, 130.0 0, 200 90 S 330.0 180, 400 90 S 530.0 0, 600.0, 90" fill="none" stroke="#ddd" style="opacity:0.10666666666666667;stroke-width:8px;" transform="translate(-100, 233.0)"  /><path d="M0 90 C 70.0 0, 130.0 0, 200 90 S 330.0 180, 400 90 S 530.0 0, 600.0, 90" fill="none" stroke="#ddd" style="opacity:0.05466666666666667;stroke-width:8px;" transform="translate(-100, -47.0)"  /><path d="M0 90 C 70.0 0, 130.0 0, 200 90 S 330.0 180, 400 90 S 530.0 0, 600.0, 90" fill="none" stroke="#ddd" style="opacity:0.05466666666666667;stroke-width:8px;" transform="translate(-100, 241.0)"  /><path d="M0 90 C 70.0 0, 130.0 0, 200 90 S 330.0 180, 400 90 S 530.0 0, 600.0, 90" fill="none" stroke="#ddd" style="opacity:0.07200000000000001;stroke-width:8px;" transform="translate(-100, -39.0)"  /><path d="M0 90 C 70.0 0, 130.0 0, 200 90 S 330.0 180, 400 90 S 530.0 0, 600.0, 90" fill="none" stroke="#ddd" style="opacity:0.07200000000000001;stroke-width:8px;" transform="translate(-100, 249.0)"  /><path d="M0 90 C 70.0 0, 130.0 0, 200 90 S 330.0 180, 400 90 S 530.0 0, 600.0, 90" fill="none" stroke="#ddd" style="opacity:0.05466666666666667;stroke-width:8px;" transform="translate(-100, -31.0)"  /><path d="M0 90 C 70.0 0, 130.0 0, 200 90 S 330.0 180, 400 90 S 530.0 0, 600.0, 90" fill="none" stroke="#ddd" style="opacity:0.05466666666666667;stroke-width:8px;" transform="translate(-100, 257.0)"  /><path d="M0 90 C 70.0 0, 130.0 0, 200 90 S 330.0 180, 400 90 S 530.0 0, 600.0, 90" fill="none" stroke="#ddd" style="opacity:0.07200000000000001;stroke-width:8px;" transform="translate(-100, -23.0)"  /><path d="M0 90 C 70.0 0, 130.0 0, 200 90 S 330.0 180, 400 90 S 530.0 0, 600.0, 90" fill="none" stroke="#ddd" style="opacity:0.07200000000000001;stroke-width:8px;" transform="translate(-100, 265.0)"  /><path d="M0 90 C 70.0 0, 130.0 0, 200 90 S 330.0 180, 400 90 S 530.0 0, 600.0, 90" fill="none" stroke="#ddd" style="opacity:0.02;stroke-width:8px;" transform="translate(-100, -15.0)"  /><path d="M0 90 C 70.0 0, 130.0 0, 200 90 S 330.0 180, 400 90 S 530.0 0, 600.0, 90" fill="none" stroke="#ddd" style="opacity:0.02;stroke-width:8px;" transform="translate(-100, 273.0)"  /><path d="M0 90 C 70.0 0, 130.0 0, 200 90 S 330.0 180, 400 90 S 530.0 0, 600.0, 90" fill="none" stroke="#222" style="opacity:0.098;stroke-width:8px;" transform="translate(-100, -7.0)"  /><path d="M0 90 C 70.0 0, 130.0 0, 200 90 S 330.0 180, 400 90 S 530.0 0, 600.0, 90" fill="none" stroke="#222" style="opacity:0.098;stroke-width:8px;" transform="translate(-100, 281.0)"  /><path d="M0 90 C 70.0 0, 130.0 0, 200 90 S 330.0 180, 400 90 S 530.0 0, 600.0, 90" fill="none" stroke="#ddd" style="opacity:0.03733333333333333;stroke-width:8px;" transform="translate(-100, 1.0)"  /><path d="M0 90 C 70.0 0, 130.0 0, 200 90 S 330.0 180, 400 90 S 530.0 0, 600.0, 90" fill="none" stroke="#ddd" style="opacity:0.03733333333333333;stroke-width:8px;" transform="translate(-100, 289.0)"  /><path d="M0 90 C 70.0 0, 130.0 0, 200 90 S 330.0 180, 400 90 S 530.0 0, 600.0, 90" fill="none" stroke="#222" style="opacity:0.06333333333333334;stroke-width:8px;" transform="translate(-100, 9.0)"  /><path d="M0 90 C 70.0 0, 130.0 0, 200 90 S 330.0 180, 400 90 S 530.0 0, 600.0, 90" fill="none" stroke="#222" style="opacity:0.06333333333333334;stroke-width:8px;" transform="translate(-100, 297.0)"  /><path d="M0 90 C 70.0 0, 130.0 0, 200 90 S 330.0 180, 400 90 S 530.0 0, 600.0, 90" fill="none" stroke="#222" style="opacity:0.046;stroke-width:8px;" transform="translate(-100, 17.0)"  /><path d="M0 90 C 70.0 0, 130.0 0, 200 90 S 330.0 180, 400 90 S 530.0 0, 600.0, 90" fill="none" stroke="#222" style="opacity:0.046;stroke-width:8px;" transform="translate(-100, 305.0)"  /><path d="M0 90 C 70.0 0, 130.0 0, 200 90 S 330.0 180, 400 90 S 530.0 0, 600.0, 90" fill="none" stroke="#ddd" style="opacity:0.05466666666666667;stroke-width:8px;" transform="translate(-100, 25.0)"  /><path d="M0 90 C 70.0 0, 130.0 0, 200 90 S 330.0 180, 400 90 S 530.0 0, 600.0, 90" fill="none" stroke="#ddd" style="opacity:0.05466666666666667;stroke-width:8px;" transform="translate(-100, 313.0)"  /><path d="M0 90 C 70.0 0, 130.0 0, 200 90 S 330.0 180, 400 90 S 530.0 0, 600.0, 90" fill="none" stroke="#222" style="opacity:0.06333333333333334;stroke-width:8px;" transform="translate(-100, 33.0)"  /><path d="M0 90 C 70.0 0, 130.0 0, 200 90 S 330.0 180, 400 90 S 530.0 0, 600.0, 90" fill="none" stroke="#222" style="opacity:0.06333333333333334;stroke-width:8px;" transform="translate(-100, 321.0)"  /><path d="M0 90 C 70.0 0, 130.0 0, 200 90 S 330.0 180, 400 90 S 530.0 0, 600.0, 90" fill="none" stroke="#222" style="opacity:0.08066666666666666;stroke-width:8px;" transform="translate(-100, 41.0)"  /><path d="M0 90 C 70.0 0, 130.0 0, 200 90 S 330.0 180, 400 90 S 530.0 0, 600.0, 90" fill="none" stroke="#222" style="opacity:0.08066666666666666;stroke-width:8px;" transform="translate(-100, 329.0)"  /><path d="M0 90 C 70.0 0, 130.0 0, 200 90 S 330.0 180, 400 90 S 530.0 0, 600.0, 90" fill="none" stroke="#ddd" style="opacity:0.12400000000000001;stroke-width:8px;" transform="translate(-100, 49.0)"  /><path d="M0 90 C 70.0 0, 130.0 0, 200 90 S 330.0 180, 400 90 S 530.0 0, 600.0, 90" fill="none" stroke="#ddd" style="opacity:0.12400000000000001;stroke-width:8px;" transform="translate(-100, 337.0)"  /><path d="M0 90 C 70.0 0, 130.0 0, 200 90 S 330.0 180, 400 90 S 530.0 0, 600.0, 90" fill="none" stroke="#ddd" style="opacity:0.07200000000000001;stroke-width:8px;" transform="translate(-100, 57.0)"  /><path d="M0 90 C 70.0 0, 130.0 0, 200 90 S 330.0 180, 400 90 S 530.0 0, 600.0, 90" fill="none" stroke="#ddd" style="opacity:0.07200000000000001;stroke-width:8px;" transform="translate(-100, 345.0)"  /><path d="M0 90 C 70.0 0, 130.0 0, 200 90 S 330.0 180, 400 90 S 530.0 0, 600.0, 90" fill="none" stroke="#ddd" style="opacity:0.03733333333333333;stroke-width:8px;" transform="translate(-100, 65.0)"  /><path d="M0 90 C 70.0 0, 130.0 0, 200 90 S 330.0 180, 400 90 S 530.0 0, 600.0, 90" fill="none" stroke="#ddd" style="opacity:0.03733333333333333;stroke-width:8px;" transform="translate(-100, 353.0)"  /><path d="M0 90 C 70.0 0, 130.0 0, 200 90 S 330.0 180, 400 90 S 530.0 0, 600.0, 90" fill="none" stroke="#222" style="opacity:0.11533333333333334;stroke-width:8px;" transform="translate(-100, 73.0)"  /><path d="M0 90 C 70.0 0, 130.0 0, 200 90 S 330.0 180, 400 90 S 530.0 0, 600.0, 90" fill="none" stroke="#222" style="opacity:0.11533333333333334;stroke-width:8px;" transform="translate(-100, 361.0)"  /><path d="M0 90 C 70.0 0, 130.0 0, 200 90 S 330.0 180, 400 90 S 530.0 0, 600.0, 90" fill="none" stroke="#ddd" style="opacity:0.14133333333333334;stroke-width:8px;" transform="translate(-100, 81.0)"  /><path d="M0 90 C 70.0 0, 130.0 0, 200 90 S 330.0 180, 400 90 S 530.0 0, 600.0, 90" fill="none" stroke="#ddd" style="opacity:0.14133333333333334;stroke-width:8px;" transform="translate(-100, 369.0)"  /><path d="M0 90 C 70.0 0, 130.0 0, 200 90 S 330.0 180, 400 90 S 530.0 0, 600.0, 90" fill="none" stroke="#ddd" style="opacity:0.02;stroke-width:8px;" transform="translate(-100, 89.0)"  /><path d="M0 90 C 70.0 0, 130.0 0, 200 90 S 330.0 180, 400 90 S 530.0 0, 600.0, 90" fill="none" stroke="#ddd" style="opacity:0.02;stroke-width:8px;" transform="translate(-100, 377.0)"  /><path d="M0 90 C 70.0 0, 130.0 0, 200 90 S 330.0 180, 400 90 S 530.0 0, 600.0, 90" fill="none" stroke="#222" style="opacity:0.098;stroke-width:8px;" transform="translate(-100, 97.0)"  /><path d="M0 90 C 70.0 0, 130.0 0, 200 90 S 330.0 180, 400 90 S 530.0 0, 600.0, 90" fill="none" stroke="#222" style="opacity:0.098;stroke-width:8px;" transform="translate(-100, 385.0)"  /><path d="M0 90 C 70.0 0, 130.0 0, 200 90 S 330.0 180, 400 90 S 530.0 0, 600.0, 90" fill="none" stroke="#222" style="opacity:0.046;stroke-width:8px;" transform="translate(-100, 105.0)"  /><path d="M0 90 C 70.0 0, 130.0 0, 200 90 S 330.0 180, 400 90 S 530.0 0, 600.0, 90" fill="none" stroke="#222" style="opacity:0.046;stroke-width:8px;" transform="translate(-100, 393.0)"  /><path d="M0 90 C 70.0 0, 130.0 0, 200 90 S 330.0 180, 400 90 S 530.0 0, 600.0, 90" fill="none" stroke="#ddd" style="opacity:0.05466666666666667;stroke-width:8px;" transform="translate(-100, 113.0)"  /><path d="M0 90 C 70.0 0, 130.0 0, 200 90 S 330.0 180, 400 90 S 530.0 0, 600.0, 90" fill="none" stroke="#ddd" style="opacity:0.05466666666666667;stroke-width:8px;" transform="translate(-100, 401.0)"  /><path d="M0 90 C 70.0 0, 130.0 0, 200 90 S 330.0 180, 400 90 S 530.0 0, 600.0, 90" fill="none" stroke="#ddd" style="opacity:0.10666666666666667;stroke-width:8px;" transform="translate(-100, 121.0)"  /><path d="M0 90 C 70.0 0, 130.0 0, 200 90 S 330.0 180, 400 90 S 530.0 0, 600.0, 90" fill="none" stroke="#ddd" style="opacity:0.10666666666666667;stroke-width:8px;" transform="translate(-100, 409.0)"  /><path d="M0 90 C 70.0 0, 130.0 0, 200 90 S 330.0 180, 400 90 S 530.0 0, 600.0, 90" fill="none" stroke="#ddd" style="opacity:0.02;stroke-width:8px;" transform="translate(-100, 129.0)"  /><path d="M0 90 C 70.0 0, 130.0 0, 200 90 S 330.0 180, 400 90 S 530.0 0, 600.0, 90" fill="none" stroke="#ddd" style="opacity:0.02;stroke-width:8px;" transform="translate(-100, 417.0)"  /><path d="M0 90 C 70.0 0, 130.0 0, 200 90 S 330.0 180, 400 90 S 530.0 0, 600.0, 90" fill="none" stroke="#222" style="opacity:0.13266666666666665;stroke-width:8px;" transform="translate(-100, 137.0)"  /><path d="M0 90 C 70.0 0, 130.0 0, 200 90 S 330.0 180, 400 90 S 530.0 0, 600.0, 90" fill="none" stroke="#222" style="opacity:0.13266666666666665;stroke-width:8px;" transform="translate(-100, 425.0)"  /><path d="M0 90 C 70.0 0, 130.0 0, 200 90 S 330.0 180, 400 90 S 530.0 0, 600.0, 90" fill="none" stroke="#ddd" style="opacity:0.03733333333333333;stroke-width:8px;" transform="translate(-100, 145.0)"  /><path d="M0 90 C 70.0 0, 130.0 0, 200 90 S 330.0 180, 400 90 S 530.0 0, 600.0, 90" fill="none" stroke="#ddd" style="opacity:0.03733333333333333;stroke-width:8px;" transform="translate(-100, 433.0)"  /></svg>