<svg xmlns="http://www.w3.org/2000/svg" width="240" height="240"><rect x="0" y="0" width="100%" height="100%" fill="rgb(111, 80, 180)"  /><circle cx="0.0" cy="0.0" r="35.0" fill="none" stroke="#222" style="opacity:0.098;stroke-width:10.0px;"  /><circle cx="240.0" cy="0.0" r="35.0" fill="none" stroke="#222" style="opacity:0.098;stroke-width:10.0px;"  /><circle cx="0.0" cy="240.0" r="35.0" fill="none" stroke="#222" style="opacity:0.098;stroke-width:10.0px;"  /><circle cx="240.0" cy="240.0" r="35.0" fill="none" stroke="#222" style="opacity:0.098;stroke-width:10.0px;"  /><circle cx="40.0" cy="0.0" r="35.0" fill="none" stroke="#ddd" style="opacity:0.05466666666666667;stroke-width:10.0px;"  /><circle cx="40.0" cy="240.0" r="35.0" fill="none" stroke="#ddd" style="opacity:0.05466666666666667;stroke-width:10.0px;"  /><circle cx="80.0" cy="0.0" r="35.0" fill="none" stroke="#222" style="opacity:0.15;stroke-width:10.0px;"  /><circle cx="80.0" cy="240.0" r="35.0" fill="none" stroke="#222" style="opacity:0.15;stroke-width:10.0px;"  /><circle cx="120.0" cy="0.0" r="35.0" fill="none" stroke="#222" style="opacity:0.098;stroke-width:10.0px;"  /><circle cx="120.0" cy="240.0" r="35.0" fill="none" stroke="#222" style="opacity:0.098;stroke-width:10.0px;"  /><circle cx="160.0" cy="0.0" r="35.0" fill="none" stroke="#ddd" style="opacity:0.05466666666666667;stroke-width:10.0px;"  /><circle cx="160.0" cy="240.0" r="35.0" fill="none" stroke="#ddd" style="opacity:0.05466666666666667;stroke-width:10.0px;"  /><circle cx="200.0" cy="0.0" r="35.0" fill="none" stroke="#ddd" style="opacity:0.07200000000000001;stroke-width:10.0px;"  /><circle cx="200.0" cy="240.0" r="35.0" fill="none" stroke="#ddd" style="opacity:0.07200000000000001;stroke-width:10.0px;"  /><circle cx="0.0" cy="40.0" r="35.0" fill="none" stroke="#ddd" style="opacity:0.05466666666666667;stroke-width:10.0px;"  /><circle cx="240.0" cy="40.0" r="35.0" fill="none" stroke="#ddd" style="opacity:0.05466666666666667;stroke-width:10.0px;"  /><circle cx="40.0" cy="40.0" r="35.0" fill="none" stroke="#222" style="opacity:0.11533333333333334;stroke-width:10.0px;"  /><circle cx="80.0" cy="40.0" r="35.0" fill="none" stroke="#ddd" style="opacity:0.08933333333333333;stroke-width:10.0px;"  /><circle cx="120.0" cy="40.0" r="35.0" fill="none" stroke="#222" style="opacity:0.028666666666666667;stroke-width:10.0px;"  /><circle cx="160.0" cy="40.0" r="35.0" fill="none" stroke="#222" style="opacity:0.13266666666666665;stroke-width:10.0px;"  /><circle cx="200.0" cy="40.0" r="35.0" fill="none" stroke="#ddd" style="opacity:0.02;stroke-width:10.0px;"  /><circle cx="0.0" cy="80.0" r="35.0" fill="none" stroke="#222" style="opacity:0.06333333333333334;stroke-width:10.0px;"  /><circle cx="240.0" cy="80.0" r="35.0" fill="none" stroke="#222" style="opacity:0.06333333333333334;stroke-width:10.0px;"  /><circle cx="40.0" cy="80.0" r="35.0" fill="none" stroke="#ddd" style="opacity:0.02;stroke-width:10.0px;"  /><circle cx="80.0" cy="80.0" r="35.0" fill="none" stroke="#ddd" style="opacity:0.05466666666666667;stroke-width:10.0px;"  /><circle cx="120.0" cy="80.0" r="35.0" fill="none" stroke="#ddd" style="opacity:0.08933333333333333;stroke-width:10.0px;"  /><circle cx="160.0" cy="80.0" r="35.0" fill="none" stroke="#222" style="opacity:0.08066666666666666;stroke-width:10.0px;"  /><circle cx="200.0" cy="80.0" r="35.0" fill="none" stroke="#222" style="opacity:0.13266666666666665;stroke-width:10.0px;"  /><circle cx="0.0" cy="120.0" r="35.0" fill="none" stroke="#ddd" style="opacity:0.05466666666666667;stroke-width:10.0px;"  /><circle cx="240.0" cy="120.0" r="35.0" fill="none" stroke="#ddd" style="opacity:0.05466666666666667;stroke-width:10.0px;"  /><circle cx="40.0" cy="120.0" r="35.0" fill="none" stroke="#ddd" style="opacity:0.07200000000000001;stroke-width:10.0px;"  /><circle cx="80.0" cy="120.0" r="35.0" fill="none" stroke="#ddd" style="opacity:0.07200000000000001;stroke-width:10.0px;"  /><circle cx="120.0" cy="120.0" r="35.0" fill="none" stroke="#222" style="opacity:0.046;stroke-width:10.0px;"  /><circle cx="160.0" cy="120.0" r="35.0" fill="none" stroke="#222" style="opacity:0.098;stroke-width:10.0px;"  /><circle cx="200.0" cy="120.0" r="35.0" fill="none" stroke="#ddd" style="opacity:0.02;stroke-width:10.0px;"  /><circle cx="0.0" cy="160.0" r="35.0" fill="none" stroke="#ddd" style="opacity:0.07200000000000001;stroke-width:10.0px;"  /><circle cx="240.0" cy="160.0" r="35.0" fill="none" stroke="#ddd" style="opacity:0.07200000000000001;stroke-width:10.0px;"  /><circle cx="40.0" cy="160.0" r="35.0" fill="none" stroke="#222" style="opacity:0.11533333333333334;stroke-width:10.0px;"  /><circle cx="80.0" cy="160.0" r="35.0" fill="none" stroke="#ddd" style="opacity:0.02;stroke-width:10.0px;"  /><circle cx="120.0" cy="160.0" r="35.0" fill="none" stroke="#ddd" style="opacity:0.10666666666666667;stroke-width:10.0px;"  /><circle cx="160.0" cy="160.0" r="35.0" fill="none" stroke="#ddd" style="opacity:0.14133333333333334;stroke-width:10.0px;"  /><circle cx="200.0" cy="160.0" r="35.0" fill="none" stroke="#ddd" style="opacity:0.14133333333333334;stroke-width:10.0px;"  /><circle cx="0.0" cy="200.0" r="35.0" fill="none" stroke="#ddd" style="opacity:0.02;stroke-width:10.0px;"  /><circle cx="240.0" cy="200.0" r="35.0" fill="none" stroke="#ddd" style="opacity:0.02;stroke-width:10.0px;"  /><circle cx="40.0" cy="200.0" r="35.0" fill="none" stroke="#ddd" style="opacity:0.02;stroke-width:10.0px;"  /><circle cx="80.0" cy="200.0" r="35.0" fill="none" stroke="#ddd" style="opacity:0.07200000000000001;stroke-width:10.0px;"  /><circle cx="120.0" cy="200.0" r="35.0" fill="none" stroke="#222" style="opacity:0.028666666666666667;stroke-width:10.0px;"  /><circle cx="160.0" cy="200.0" r="35.0" fill="none" stroke="#ddd" style="opacity:0.14133333333333334;stroke-width:10.0px;"  /><circle cx="200.0" cy="200.0" r="35.0" fill="none" stroke="#ddd" style="opacity:0.14133333333333334;stroke-width:10.0px;"  /></svg>