<svg xmlns="http://www.w3.org/2000/svg" width="140" height="102"><rect x="0" y="0" width="100%" height="100%" fill="rgb(199, 168, 61)"  /><polyline points="11.666666666666668, 0, 23.333333333333336, 17.0, 11.666666666666668, 34.0, 0, 17.0" fill="#222" fill-opacity="0.06333333333333334" stroke="#000" stroke-opacity="0.02" transform="translate(-11.666666666666668, -17.0)"  /><polyline points="11.666666666666668, 0, 23.333333333333336, 17.0, 11.666666666666668, 34.0, 0, 17.0" fill="#222" fill-opacity="0.06333333333333334" stroke="#000" stroke-opacity="0.02" transform="translate(128.33333333333334, -17.0)"  /><polyline points="11.666666666666668, 0, 23.333333333333336, 17.0, 11.666666666666668, 34.0, 0, 17.0" fill="#222" fill-opacity="0.06333333333333334" stroke="#000" stroke-opacity="0.02" transform="translate(-11.666666666666668, 85.0)"  /><polyline points="11.666666666666668, 0, 23.333333333333336, 17.0, 11.666666666666668, 34.0, 0, 17.0" fill="#222" fill-opacity="0.06333333333333334" stroke="#000" stroke-opacity="0.02" transform="translate(128.33333333333334, 85.0)"  /><polyline points="11.666666666666668, 0, 23.333333333333336, 17.0, 11.666666666666668, 34.0, 0, 17.0" fill="#222" fill-opacity="0.098" stroke="#000" stroke-opacity="0.02" transform="translate(11.666666666666668, -17.0)"  /><polyline points="11.666666666666668, 0, 23.333333333333336, 17.0, 11.666666666666668, 34.0, 0, 17.0" fill="#222" fill-opacity="0.098" stroke="#000" stroke-opacity="0.02" transform="translate(11.666666666666668, 85.0)"  /><polyline points="11.666666666666668, 0, 23.333333333333336, 17.0, 11.666666666666668, 34.0, 0, 17.0" fill="#ddd" fill-opacity="0.08933333333333333" stroke="#000" stroke-opacity="0.02" transform="translate(35.0, -17.0)"  /><polyline points="11.666666666666668, 0, 23.333333333333336, 17.0, 11.666666666666668, 34.0, 0, 17.0" fill="#ddd" fill-opacity="0.08933333333333333" stroke="#000" stroke-opacity="0.02" transform="translate(35.0, 85.0)"  /><polyline points="11.666666666666668, 0, 23.333333333333336, 17.0, 11.666666666666668, 34.0, 0, 17.0" fill="#222" fill-opacity="0.046" stroke="#000" stroke-opacity="0.02" transform="translate(58.33333333333333, -17.0)"  /><polyline points="11.666666666666668, 0, 23.333333333333336, 17.0, 11.666666666666668, 34.0, 0, 17.0" fill="#222" fill-opacity="0.046" stroke="#000" stroke-opacity="0.02" transform="translate(58.33333333333333, 85.0)"  /><polyline points="11.666666666666668, 0, 23.333333333333336, 17.0, 11.666666666666668, 34.0, 0, 17.0" fill="#ddd" fill-opacity="0.07200000000000001" stroke="#000" stroke-opacity="0.02" transform="translate(81.66666666666667, -17.0)"  /><polyline points="11.666666666666668, 0, 23.333333333333336, 17.0, 11.666666666666668, 34.0, 0, 17.0" fill="#ddd" fill-opacity="0.07200000000000001" stroke="#000" stroke-opacity="0.02" transform="translate(81.66666666666667, 85.0)"  /><polyline points="11.666666666666668, 0, 23.333333333333336, 17.0, 11.666666666666668, 34.0, 0, 17.0" fill="#ddd" fill-opacity="0.05466666666666667" stroke="#000" stroke-opacity="0.02" transform="translate(105.00000000000001, -17.0)"  /><polyline points="11.666666666666668, 0, 23.333333333333336, 17.0, 11.666666666666668, 34.0, 0, 17.0" fill="#ddd" fill-opacity="0.05466666666666667" stroke="#000" stroke-opacity="0.02" transform="translate(105.00000000000001, 85.0)"  /><polyline points="11.666666666666668, 0, 23.333333333333336, 17.0, 11.666666666666668, 34.0, 0, 17.0" fill="#222" fill-opacity="0.11533333333333334" stroke="#000" stroke-opacity="0.02" transform="translate(0.0, 0.0)"  /><polyline points="11.666666666666668, 0, 23.333333333333336, 17.0, 11.666666666666668, 34.0, 0, 17.0" fill="#222" fill-opacity="0.11533333333333334" stroke="#000" stroke-opacity="0.02" transform="translate(140.0, 0.0)"  /><polyline points="11.666666666666668, 0, 23.333333333333336, 17.0, 11.666666666666668, 34.0, 0, 17.0" fill="#222" fill-opacity="0.13266666666666665" stroke="#000" stroke-opacity="0.02" transform="translate(23.333333333333336, 0.0)"  /><polyline points="11.666666666666668, 0, 23.333333333333336, 17.0, 11.666666666666668, 34.0, 0, 17.0" fill="#ddd" fill-opacity="0.10666666666666667" stroke="#000" stroke-opacity="0.02" transform="translate(46.66666666666667, 0.0)"  /><polyline points="11.666666666666668, 0, 23.333333333333336, 17.0, 11.666666666666668, 34.0, 0, 17.0" fill="#ddd" fill-opacity="0.12400000000000001" stroke="#000" stroke-opacity="0.02" transform="translate(70.0, 0.0)"  /><polyline points="11.666666666666668, 0, 23.333333333333336, 17.0, 11.666666666666668, 34.0, 0, 17.0" fill="#ddd" fill-opacity="0.10666666666666667" stroke="#000" stroke-opacity="0.02" transform="translate(93.33333333333334, 0.0)"  /><polyline points="11.666666666666668, 0, 23.333333333333336, 17.0, 11.666666666666668, 34.0, 0, 17.0" fill="#222" fill-opacity="0.13266666666666665" stroke="#000" stroke-opacity="0.02" transform="translate(116.66666666666669, 0.0)"  /><polyline points="11.666666666666668, 0, 23.333333333333336, 17.0, 11.666666666666668, 34.0, 0, 17.0" fill="#222" fill-opacity="0.15" stroke="#000" stroke-opacity="0.02" transform="translate(-11.666666666666668, 17.0)"  /><polyline points="11.666666666666668, 0, 23.333333333333336, 17.0, 11.666666666666668, 34.0, 0, 17.0" fill="#222" fill-opacity="0.15" stroke="#000" stroke-opacity="0.02" transform="translate(128.33333333333334, 17.0)"  /><polyline points="11.666666666666668, 0, 23.333333333333336, 17.0, 11.666666666666668, 34.0, 0, 17.0" fill="#222" fill-opacity="0.028666666666666667" stroke="#000" stroke-opacity="0.02" transform="translate(11.666666666666668, 17.0)"  /><polyline points="11.666666666666668, 0, 23.333333333333336, 17.0, 11.666666666666668, 34.0, 0, 17.0" fill="#222" fill-opacity="0.13266666666666665" stroke="#000" stroke-opacity="0.02" transform="translate(35.0, 17.0)"  /><polyline points="11.666666666666668, 0, 23.333333333333336, 17.0, 11.666666666666668, 34.0, 0, 17.0" fill="#222" fill-opacity="0.15" stroke="#000" stroke-opacity="0.02" transform="translate(58.33333333333333, 17.0)"  /><polyline points="11.666666666666668, 0, 23.333333333333336, 17.0, 11.666666666666668, 34.0, 0, 17.0" fill="#ddd" fill-opacity="0.05466666666666667" stroke="#000" stroke-opacity="0.02" transform="translate(81.66666666666667, 17.0)"  /><polyline points="11.666666666666668, 0, 23.333333333333336, 17.0, 11.666666666666668, 34.0, 0, 17.0" fill="#ddd" fill-opacity="0.03733333333333333" stroke="#000" stroke-opacity="0.02" transform="translate(105.00000000000001, 17.0)"  /><polyline points="11.666666666666668, 0, 23.333333333333336, 17.0, 11.666666666666668, 34.0, 0, 17.0" fill="#222" fill-opacity="0.028666666666666667" stroke="#000" stroke-opacity="0.02" transform="translate(0.0, 34.0)"  /><polyline points="11.666666666666668, 0, 23.333333333333336, 17.0, 11.666666666666668, 34.0, 0, 17.0" fill="#222" fill-opacity="0.028666666666666667" stroke="#000" stroke-opacity="0.02" transform="translate(140.0, 34.0)"  /><polyline points="11.666666666666668, 0, 23.333333333333336, 17.0, 11.666666666666668, 34.0, 0, 17.0" fill="#ddd" fill-opacity="0.05466666666666667" stroke="#000" stroke-opacity="0.02" transform="translate(23.333333333333336, 34.0)"  /><polyline points="11.666666666666668, 0, 23.333333333333336, 17.0, 11.666666666666668, 34.0, 0, 17.0" fill="#222" fill-opacity="0.11533333333333334" stroke="#000" stroke-opacity="0.02" transform="translate(46.66666666666667, 34.0)"  /><polyline points="11.666666666666668, 0, 23.333333333333336, 17.0, 11.666666666666668, 34.0, 0, 17.0" fill="#222" fill-opacity="0.11533333333333334" stroke="#000" stroke-opacity="0.02" transform="translate(70.0, 34.0)"  /><polyline points="11.666666666666668, 0, 23.333333333333336, 17.0, 11.666666666666668, 34.0, 0, 17.0" fill="#222" fill-opacity="0.046" stroke="#000" stroke-opacity="0.02" transform="translate(93.33333333333334, 34.0)"  /><polyline points="11.666666666666668, 0, 23.333333333333336, 17.0, 11.666666666666668, 34.0, 0, 17.0" fill="#ddd" fill-opacity="0.12400000000000001" stroke="#000" stroke-opacity="0.02" transform="translate(116.66666666666669, 34.0)"  /><polyline points="11.666666666666668, 0, 23.333333333333336, 17.0, 11.666666666666668, 34.0, 0, 17.0" fill="#222" fill-opacity="0.15" stroke="#000" stroke-opacity="0.02" transform="translate(-11.666666666666668, 51.0)"  /><polyline points="11.666666666666668, 0, 23.333333333333336, 17.0, 11.666666666666668, 34.0, 0, 17.0" fill="#222" fill-opacity="0.15" stroke="#000" stroke-opacity="0.02" transform="translate(128.33333333333334, 51.0)"  /><polyline points="11.666666666666668, 0, 23.333333333333336, 17.0, 11.666666666666668, 34.0, 0, 17.0" fill="#ddd" fill-opacity="0.03733333333333333" stroke="#000" stroke-opacity="0.02" transform="translate(11.666666666666668, 51.0)"  /><polyline points="11.666666666666668, 0, 23.333333333333336, 17.0, 11.666666666666668, 34.0, 0, 17.0" fill="#222" fill-opacity="0.08066666666666666" stroke="#000" stroke-opacity="0.02" transform="translate(35.0, 51.0)"  /><polyline points="11.666666666666668, 0, 23.333333333333336, 17.0, 11.666666666666668, 34.0, 0, 17.0" fill="#222" fill-opacity="0.028666666666666667" stroke="#000" stroke-opacity="0.02" transform="translate(58.33333333333333, 51.0)"  /><polyline points="11.666666666666668, 0, 23.333333333333336, 17.0, 11.666666666666668, 34.0, 0, 17.0" fill="#ddd" fill-opacity="0.07200000000000001" stroke="#000" stroke-opacity="0.02" transform="translate(81.66666666666667, 51.0)"  /><polyline points="11.666666666666668, 0, 23.333333333333336, 17.0, 11.666666666666668, 34.0, 0, 17.0" fill="#222" fill-opacity="0.11533333333333334" stroke="#000" stroke-opacity="0.02" transform="translate(105.00000000000001, 51.0)"  /><polyline points="11.666666666666668, 0, 23.333333333333336, 17.0, 11.666666666666668, 34.0, 0, 17.0" fill="#222" fill-opacity="0.08066666666666666" stroke="#000" stroke-opacity="0.02" transform="translate(0.0, 68.0)"  /><polyline points="11.666666666666668, 0, 23.333333333333336, 17.0, 11.666666666666668, 34.0, 0, 17.0" fill="#222" fill-opacity="0.08066666666666666" stroke="#000" stroke-opacity="0.02" transform="translate(140.0, 68.0)"  /><polyline points="11.666666666666668, 0, 23.333333333333336, 17.0, 11.666666666666668, 34.0, 0, 17.0" fill="#ddd" fill-opacity="0.10666666666666667" stroke="#000" stroke-opacity="0.02" transform="translate(23.333333333333336, 68.0)"  /><polyline points="11.666666666666668, 0, 23.333333333333336, 17.0, 11.666666666666668, 34.0, 0, 17.0" fill="#222" fill-opacity="0.098" stroke="#000" stroke-opacity="0.02" transform="translate(46.66666666666667, 68.0)"  /><polyline points="11.666666666666668, 0, 23.333333333333336, 17.0, 11.666666666666668, 34.0, 0, 17.0" fill="#ddd" fill-opacity="0.14133333333333334" stroke="#000" stroke-opacity="0.02" transform="translate(70.0, 68.0)"  /><polyline points="11.666666666666668, 0, 23.333333333333336, 17.0, 11.666666666666668, 34.0, 0, 17.0" fill="#222" fill-opacity="0.028666666666666667" stroke="#000" stroke-opacity="0.02" transform="translate(93.33333333333334, 68.0)"  /><polyline points="11.666666666666668, 0, 23.333333333333336, 17.0, 11.666666666666668, 34.0, 0, 17.0" fill="#222" fill-opacity="0.06333333333333334" stroke="#000" stroke-opacity="0.02" transform="translate(116.66666666666669, 68.0)"  /></svg>