<svg xmlns="http://www.w3.org/2000/svg" width="212" height="212"><rect x="0" y="0" width="100%" height="100%" fill="rgb(49, 101, 211)"  /><g fill="#222" style="opacity:0.15;" transform="translate(-35.3625,-35.3625) rotate(45, 35.3625, 35.3625)" ><rect x="25.0" y="0" width="25.0" height="75.0"  /><rect x="0" y="25.0" width="75.0" height="25.0"  /></g><g fill="#222" style="opacity:0.15;" transform="translate(176.8125,-35.3625) rotate(45, 35.3625, 35.3625)" ><rect x="25.0" y="0" width="25.0" height="75.0"  /><rect x="0" y="25.0" width="75.0" height="25.0"  /></g><g fill="#222" style="opacity:0.15;" transform="translate(-35.3625,176.81249999999997) rotate(45, 35.3625, 35.3625)" ><rect x="25.0" y="0" width="25.0" height="75.0"  /><rect x="0" y="25.0" width="75.0" height="25.0"  /></g><g fill="#222" style="opacity:0.15;" transform="translate(176.8125,176.81249999999997) rotate(45, 35.3625, 35.3625)" ><rect x="25.0" y="0" width="25.0" height="75.0"  /><rect x="0" y="25.0" width="75.0" height="25.0"  /></g><g fill="#222" style="opacity:0.15;" transform="translate(0.0,-17.68125) rotate(45, 35.3625, 35.3625)" ><rect x="25.0" y="0" width="25.0" height="75.0"  /><rect x="0" y="25.0" width="75.0" height="25.0"  /></g><g fill="#222" style="opacity:0.15;" transform="translate(0.0,194.49374999999995) rotate(45, 35.3625, 35.3625)" ><rect x="25.0" y="0" width="25.0" height="75.0"  /><rect x="0" y="25.0" width="75.0" height="25.0"  /></g><g fill="#ddd" style="opacity:0.14133333333333334;" transform="translate(35.3625,-35.3625) rotate(45, 35.3625, 35.3625)" ><rect x="25.0" y="0" width="25.0" height="75.0"  /><rect x="0" y="25.0" width="75.0" height="25.0"  /></g><g fill="#ddd" style="opacity:0.14133333333333334;" transform="translate(35.3625,176.81249999999997) rotate(45, 35.3625, 35.3625)" ><rect x="25.0" y="0" width="25.0" height="75.0"  /><rect x="0" y="25.0" width="75.0" height="25.0"  /></g><g fill="#ddd" style="opacity:0.07200000000000001;" transform="translate(70.725,-17.68125) rotate(45, 35.3625, 35.3625)" ><rect x="25.0" y="0" width="25.0" height="75.0"  /><rect x="0" y="25.0" width="75.0" height="25.0"  /></g><g fill="#ddd" style="opacity:0.07200000000000001;" transform="translate(70.725,194.49374999999995) rotate(45, 35.3625, 35.3625)" ><rect x="25.0" y="0" width="25.0" height="75.0"  /><rect x="0" y="25.0" width="75.0" height="25.0"  /></g><g fill="#ddd" style="opacity:0.08933333333333333;" transform="translate(106.08749999999999,-35.3625) rotate(45, 35.3625, 35.3625)" ><rect x="25.0" y="0" width="25.0" height="75.0"  /><rect x="0" y="25.0" width="75.0" height="25.0"  /></g><g fill="#ddd" style="opacity:0.08933333333333333;" transform="translate(106.08749999999999,176.81249999999997) rotate(45, 35.3625, 35.3625)" ><rect x="25.0" y="0" width="25.0" height="75.0"  /><rect x="0" y="25.0" width="75.0" height="25.0"  /></g><g fill="#ddd" style="opacity:0.08933333333333333;" transform="translate(141.45,-17.68125) rotate(45, 35.3625, 35.3625)" ><rect x="25.0" y="0" width="25.0" height="75.0"  /><rect x="0" y="25.0" width="75.0" height="25.0"  /></g><g fill="#ddd" style="opacity:0.08933333333333333;" transform="translate(141.45,194.49374999999995) rotate(45, 35.3625, 35.3625)" ><rect x="25.0" y="0" width="25.0" height="75.0"  /><rect x="0" y="25.0" width="75.0" height="25.0"  /></g><g fill="#ddd" style="opacity:0.10666666666666667;" transform="translate(-35.3625,0.0) rotate(45, 35.3625, 35.3625)" ><rect x="25.0" y="0" width="25.0" height="75.0"  /><rect x="0" y="25.0" width="75.0" height="25.0"  /></g><g fill="#ddd" style="opacity:0.10666666666666667;" transform="translate(176.8125,0.0) rotate(45, 35.3625, 35.3625)" ><rect x="25.0" y="0" width="25.0" height="75.0"  /><rect x="0" y="25.0" width="75.0" height="25.0"  /></g><g fill="#222" style="opacity:0.06333333333333334;" transform="translate(0.0,17.68125) rotate(45, 35.3625, 35.3625)" ><rect x="25.0" y="0" width="25.0" height="75.0"  /><rect x="0" y="25.0" width="75.0" height="25.0"  /></g><g fill="#ddd" style="opacity:0.02;" transform="translate(35.3625,0.0) rotate(45, 35.3625, 35.3625)" ><rect x="25.0" y="0" width="25.0" height="75.0"  /><rect x="0" y="25.0" width="75.0" height="25.0"  /></g><g fill="#222" style="opacity:0.028666666666666667;" transform="translate(70.725,17.68125) rotate(45, 35.3625, 35.3625)" ><rect x="25.0" y="0" width="25.0" height="75.0"  /><rect x="0" y="25.0" width="75.0" height="25.0"  /></g><g fill="#ddd" style="opacity:0.05466666666666667;" transform="translate(106.08749999999999,0.0) rotate(45, 35.3625, 35.3625)" ><rect x="25.0" y="0" width="25.0" height="75.0"  /><rect x="0" y="25.0" width="75.0" height="25.0"  /></g><g fill="#222" style="opacity:0.046;" transform="translate(141.45,17.68125) rotate(45, 35.3625, 35.3625)" ><rect x="25.0" y="0" width="25.0" height="75.0"  /><rect x="0" y="25.0" width="75.0" height="25.0"  /></g><g fill="#ddd" style="opacity:0.02;" transform="translate(-35.3625,35.3625) rotate(45, 35.3625, 35.3625)" ><rect x="25.0" y="0" width="25.0" height="75.0"  /><rect x="0" y="25.0" width="75.0" height="25.0"  /></g><g fill="#ddd" style="opacity:0.02;" transform="translate(176.8125,35.3625) rotate(45, 35.3625, 35.3625)" ><rect x="25.0" y="0" width="25.0" height="75.0"  /><rect x="0" y="25.0" width="75.0" height="25.0"  /></g><g fill="#ddd" style="opacity:0.07200000000000001;" transform="translate(0.0,53.04374999999999) rotate(45, 35.3625, 35.3625)" ><rect x="25.0" y="0" width="25.0" height="75.0"  /><rect x="0" y="25.0" width="75.0" height="25.0"  /></g><g fill="#ddd" style="opacity:0.07200000000000001;" transform="translate(35.3625,35.3625) rotate(45, 35.3625, 35.3625)" ><rect x="25.0" y="0" width="25.0" height="75.0"  /><rect x="0" y="25.0" width="75.0" height="25.0"  /></g><g fill="#222" style="opacity:0.046;" transform="translate(70.725,53.04374999999999) rotate(45, 35.3625, 35.3625)" ><rect x="25.0" y="0" width="25.0" height="75.0"  /><rect x="0" y="25.0" width="75.0" height="25.0"  /></g><g fill="#222" style="opacity:0.06333333333333334;" transform="translate(106.08749999999999,35.3625) rotate(45, 35.3625, 35.3625)" ><rect x="25.0" y="0" width="25.0" height="75.0"  /><rect x="0" y="25.0" width="75.0" height="25.0"  /></g><g fill="#ddd" style="opacity:0.12400000000000001;" transform="translate(141.45,53.04374999999999) rotate(45, 35.3625, 35.3625)" ><rect x="25.0" y="0" width="25.0" height="75.0"  /><rect x="0" y="25.0" width="75.0" height="25.0"  /></g><g fill="#222" style="opacity:0.13266666666666665;" transform="translate(-35.3625,70.72500000000001) rotate(45, 35.3625, 35.3625)" ><rect x="25.0" y="0" width="25.0" height="75.0"  /><rect x="0" y="25.0" width="75.0" height="25.0"  /></g><g fill="#222" style="opacity:0.13266666666666665;" transform="translate(176.8125,70.72500000000001) rotate(45, 35.3625, 35.3625)" ><rect x="25.0" y="0" width="25.0" height="75.0"  /><rect x="0" y="25.0" width="75.0" height="25.0"  /></g><g fill="#222" style="opacity:0.098;" transform="translate(0.0,88.40625000000001) rotate(45, 35.3625, 35.3625)" ><rect x="25.0" y="0" width="25.0" height="75.0"  /><rect x="0" y="25.0" width="75.0" height="25.0"  /></g><g fill="#222" style="opacity:0.046;" transform="translate(35.3625,70.72500000000001) rotate(45, 35.3625, 35.3625)" ><rect x="25.0" y="0" width="25.0" height="75.0"  /><rect x="0" y="25.0" width="75.0" height="25.0"  /></g><g fill="#222" style="opacity:0.06333333333333334;" transform="translate(70.725,88.40625000000001) rotate(45, 35.3625, 35.3625)" ><rect x="25.0" y="0" width="25.0" height="75.0"  /><rect x="0" y="25.0" width="75.0" height="25.0"  /></g><g fill="#222" style="opacity:0.15;" transform="translate(106.08749999999999,70.72500000000001) rotate(45, 35.3625, 35.3625)" ><rect x="25.0" y="0" width="25.0" height="75.0"  /><rect x="0" y="25.0" width="75.0" height="25.0"  /></g><g fill="#222" style="opacity:0.08066666666666666;" transform="translate(141.45,88.40625000000001) rotate(45, 35.3625, 35.3625)" ><rect x="25.0" y="0" width="25.0" height="75.0"  /><rect x="0" y="25.0" width="75.0" height="25.0"  /></g><g fill="#222" style="opacity:0.028666666666666667;" transform="translate(-35.3625,106.08749999999998) rotate(45, 35.3625, 35.3625)" ><rect x="25.0" y="0" width="25.0" height="75.0"  /><rect x="0" y="25.0" width="75.0" height="25.0"  /></g><g fill="#222" style="opacity:0.028666666666666667;" transform="translate(176.8125,106.08749999999998) rotate(45, 35.3625, 35.3625)" ><rect x="25.0" y="0" width="25.0" height="75.0"  /><rect x="0" y="25.0" width="75.0" height="25.0"  /></g><g fill="#ddd" style="opacity:0.07200000000000001;" transform="translate(0.0,123.76874999999995) rotate(45, 35.3625, 35.3625)" ><rect x="25.0" y="0" width="25.0" height="75.0"  /><rect x="0" y="25.0" width="75.0" height="25.0"  /></g><g fill="#222" style="opacity:0.098;" transform="translate(35.3625,106.08749999999998) rotate(45, 35.3625, 35.3625)" ><rect x="25.0" y="0" width="25.0" height="75.0"  /><rect x="0" y="25.0" width="75.0" height="25.0"  /></g><g fill="#222" style="opacity:0.028666666666666667;" transform="translate(70.725,123.76874999999995) rotate(45, 35.3625, 35.3625)" ><rect x="25.0" y="0" width="25.0" height="75.0"  /><rect x="0" y="25.0" width="75.0" height="25.0"  /></g><g fill="#ddd" style="opacity:0.08933333333333333;" transform="translate(106.08749999999999,106.08749999999998) rotate(45, 35.3625, 35.3625)" ><rect x="25.0" y="0" width="25.0" height="75.0"  /><rect x="0" y="25.0" width="75.0" height="25.0"  /></g><g fill="#222" style="opacity:0.08066666666666666;" transform="translate(141.45,123.76874999999995) rotate(45, 35.3625, 35.3625)" ><rect x="25.0" y="0" width="25.0" height="75.0"  /><rect x="0" y="25.0" width="75.0" height="25.0"  /></g><g fill="#222" style="opacity:0.11533333333333334;" transform="translate(-35.3625,141.45) rotate(45, 35.3625, 35.3625)" ><rect x="25.0" y="0" width="25.0" height="75.0"  /><rect x="0" y="25.0" width="75.0" height="25.0"  /></g><g fill="#222" style="opacity:0.11533333333333334;" transform="translate(176.8125,141.45) rotate(45, 35.3625, 35.3625)" ><rect x="25.0" y="0" width="25.0" height="75.0"  /><rect x="0" y="25.0" width="75.0" height="25.0"  /></g><g fill="#222" style="opacity:0.11533333333333334;" transform="translate(-35.3625,-70.72499999999997) rotate(45, 35.3625, 35.3625)" ><rect x="25.0" y="0" width="25.0" height="75.0"  /><rect x="0" y="25.0" width="75.0" height="25.0"  /></g><g fill="#222" style="opacity:0.08066666666666666;" transform="translate(0.0,159.13124999999997) rotate(45, 35.3625, 35.3625)" ><rect x="25.0" y="0" width="25.0" height="75.0"  /><rect x="0" y="25.0" width="75.0" height="25.0"  /></g><g fill="#222" style="opacity:0.08066666666666666;" transform="translate(0.0,-53.04374999999999) rotate(45, 35.3625, 35.3625)" ><rect x="25.0" y="0" width="25.0" height="75.0"  /><rect x="0" y="25.0" width="75.0" height="25.0"  /></g><g fill="#222" style="opacity:0.13266666666666665;" transform="translate(35.3625,141.45) rotate(45, 35.3625, 35.3625)" ><rect x="25.0" y="0" width="25.0" height="75.0"  /><rect x="0" y="25.0" width="75.0" height="25.0"  /></g><g fill="#222" style="opacity:0.13266666666666665;" transform="translate(35.3625,-70.72499999999997) rotate(45, 35.3625, 35.3625)" ><rect x="25.0" y="0" width="25.0" height="75.0"  /><rect x="0" y="25.0" width="75.0" height="25.0"  /></g><g fill="#222" style="opacity:0.11533333333333334;" transform="translate(70.725,159.13124999999997) rotate(45, 35.3625, 35.3625)" ><rect x="25.0" y="0" width="25.0" height="75.0"  /><rect x="0" y="25.0" width="75.0" height="25.0"  /></g><g fill="#222" style="opacity:0.11533333333333334;" transform="translate(70.725,-53.04374999999999) rotate(45, 35.3625, 35.3625)" ><rect x="25.0" y="0" width="25.0" height="75.0"  /><rect x="0" y="25.0" width="75.0" height="25.0"  /></g><g fill="#222" style="opacity:0.046;" transform="translate(106.08749999999999,141.45) rotate(45, 35.3625, 35.3625)" ><rect x="25.0" y="0" width="25.0" height="75.0"  /><rect x="0" y="25.0" width="75.0" height="25.0"  /></g><g fill="#222" style="opacity:0.046;" transform="translate(106.08749999999999,-70.72499999999997) rotate(45, 35.3625, 35.3625)" ><rect x="25.0" y="0" width="25.0" height="75.0"  /><rect x="0" y="25.0" width="75.0" height="25.0"  /></g><g fill="#ddd" style="opacity:0.08933333333333333;" transform="translate(141.45,159.13124999999997) rotate(45, 35.3625, 35.3625)" ><rect x="25.0" y="0" width="25.0" height="75.0"  /><rect x="0" y="25.0" width="75.0" height="25.0"  /></g><g fill="#ddd" style="opacity:0.08933333333333333;" transform="translate(141.45,-53.04374999999999) rotate(45, 35.3625, 35.3625)" ><rect x="25.0" y="0" width="25.0" height="75.0"  /><rect x="0" y="25.0" width="75.0" height="25.0"  /></g></svg>